<svg xmlns="http://www.w3.org/2000/svg">
  <symbol viewBox="0 0 17 10" id="arrow">
    <path d="M15.5633 1.72546L8.57572 8.73784L1.56334 1.75024" stroke="#5A5A5A" stroke-width="1.5" stroke-linecap="round" stroke-linejoin="round"/>
  </symbol>
  <symbol viewBox="0 0 25 25" id="facebook">
    <path d="M24.6094 12.5C24.6094 5.81055 19.1895 0.390625 12.5 0.390625C5.81055 0.390625 0.390625 5.81055 0.390625 12.5C0.390625 18.5439 4.81885 23.5537 10.6079 24.4629V16.0005H7.53174V12.5H10.6079V9.83203C10.6079 6.79736 12.4146 5.12109 15.1816 5.12109C16.5068 5.12109 17.8926 5.35742 17.8926 5.35742V8.33594H16.3652C14.8613 8.33594 14.3921 9.26953 14.3921 10.2271V12.5H17.7505L17.2134 16.0005H14.3921V24.4629C20.1812 23.5537 24.6094 18.5439 24.6094 12.5Z"/>
  </symbol>
  <symbol viewBox="0 0 25 25" id="youtube">
    <path d="M23.8566 6.77452C23.5839 5.74804 22.7807 4.93962 21.7609 4.66527C19.9124 4.16675 12.5 4.16675 12.5 4.16675C12.5 4.16675 5.08767 4.16675 3.2391 4.66527C2.21927 4.93966 1.41606 5.74804 1.14344 6.77452C0.648132 8.63506 0.648132 12.5169 0.648132 12.5169C0.648132 12.5169 0.648132 16.3988 1.14344 18.2593C1.41606 19.2858 2.21927 20.0605 3.2391 20.3349C5.08767 20.8334 12.5 20.8334 12.5 20.8334C12.5 20.8334 19.9123 20.8334 21.7609 20.3349C22.7807 20.0605 23.5839 19.2858 23.8566 18.2593C24.3519 16.3988 24.3519 12.5169 24.3519 12.5169C24.3519 12.5169 24.3519 8.63506 23.8566 6.77452ZM10.0757 16.0414V8.99249L16.271 12.517L10.0757 16.0414Z"/>
  </symbol>
  <symbol viewBox="0 0 25 25" id="twitter">
    <path d="M22.4302 7.40791C22.446 7.62998 22.446 7.8521 22.446 8.07417C22.446 14.8476 17.2906 22.6522 7.86802 22.6522C4.96509 22.6522 2.26841 21.8114 0 20.3521C0.412451 20.3997 0.808984 20.4155 1.2373 20.4155C3.63257 20.4155 5.83755 19.6065 7.59834 18.2265C5.3458 18.1789 3.45811 16.7036 2.80771 14.6731C3.125 14.7207 3.44224 14.7524 3.77539 14.7524C4.2354 14.7524 4.69546 14.689 5.12373 14.578C2.77603 14.102 1.01519 12.0399 1.01519 9.54941V9.48599C1.69727 9.8667 2.49048 10.1046 3.33115 10.1363C1.95107 9.21626 1.04692 7.64585 1.04692 5.86919C1.04692 4.91743 1.30068 4.04497 1.74487 3.28354C4.26709 6.39268 8.05835 8.4231 12.3096 8.64522C12.2303 8.2645 12.1827 7.86797 12.1827 7.47139C12.1827 4.64775 14.4669 2.34766 17.3064 2.34766C18.7816 2.34766 20.1141 2.96631 21.05 3.96567C22.208 3.7436 23.3184 3.31528 24.302 2.72837C23.9212 3.91812 23.1122 4.91748 22.0494 5.55195C23.0805 5.44097 24.0799 5.15537 24.9999 4.75884C24.302 5.77402 23.4295 6.67817 22.4302 7.40791Z"/>
  </symbol>
</svg>
