<svg width="136" height="46" viewBox="0 0 136 46" fill="none" xmlns="http://www.w3.org/2000/svg">
<path fill-rule="evenodd" clip-rule="evenodd" d="M18.4933 32.6777C18.3834 31.1523 13.5225 25.7445 11.8726 25.7464C10.2248 25.7503 5.69741 31.1286 5.44774 33.2558C4.84875 38.3747 18.8445 37.5475 18.4933 32.6777Z" fill="#F87661"/>
<path fill-rule="evenodd" clip-rule="evenodd" d="M3.65736 28.1708C1.48561 28.1747 -1.84218 19.1109 3.85359 13.3949C8.10742 9.12597 15.0154 9.11374 19.2833 13.3666C24.6019 18.6664 22.775 27.3036 19.7718 27.3089C18.0428 27.3119 14.9395 22.2757 11.8371 22.2802C8.73476 22.2847 5.82912 28.167 3.65736 28.1708Z" fill="#42766C"/>
<path d="M47.0134 19.9715C47.0151 20.9475 46.7927 21.8439 46.3461 22.6607C45.8996 23.4615 45.2127 24.1107 44.2856 24.6084C43.3585 25.106 42.2069 25.356 40.8309 25.3585L38.2869 25.363L38.2976 31.411L34.1936 31.4182L34.1638 14.5703L40.8118 14.5585C42.1558 14.5561 43.2922 14.7861 44.221 15.2485C45.1498 15.7108 45.847 16.3496 46.3124 17.1648C46.7779 17.9799 47.0115 18.9155 47.0134 19.9715ZM40.5131 22.095C41.2971 22.0936 41.8808 21.9086 42.2642 21.5399C42.6475 21.1712 42.8386 20.6509 42.8374 19.9789C42.8362 19.3069 42.6433 18.7873 42.2586 18.4199C41.874 18.0526 41.2897 17.8696 40.5057 17.871L38.2737 17.875L38.2811 22.099L40.5131 22.095ZM61.7819 24.4574C61.7826 24.8414 61.7593 25.2414 61.712 25.6575L52.4241 25.6739C52.4895 26.5058 52.7547 27.1454 53.2194 27.5925C53.7002 28.0237 54.2846 28.2387 54.9726 28.2374C55.9966 28.2356 56.7078 27.8024 57.1063 26.9377L61.4743 26.9299C61.2518 27.8103 60.8453 28.603 60.2545 29.3081C59.6797 30.0131 58.9527 30.5664 58.0734 30.968C57.1941 31.3695 56.2105 31.5713 55.1225 31.5732C53.8105 31.5755 52.642 31.2976 51.617 30.7394C50.592 30.1812 49.7906 29.3826 49.2128 28.3436C48.6349 27.3047 48.3448 26.0892 48.3423 24.6972C48.3399 23.3052 48.6177 22.0887 49.1759 21.0477C49.75 20.0067 50.5486 19.2053 51.5716 18.6434C52.5946 18.0816 53.7701 17.7996 55.0981 17.7972C56.3941 17.7949 57.5466 18.0649 58.5556 18.6071C59.5645 19.1493 60.3499 19.9239 60.9117 20.9309C61.4895 21.9379 61.7795 23.1134 61.7819 24.4574ZM57.58 23.3848C57.5788 22.6808 57.3378 22.1212 56.857 21.7061C56.3763 21.2909 55.7759 21.084 55.0559 21.0853C54.3679 21.0865 53.7843 21.2875 53.305 21.6884C52.8417 22.0892 52.5547 22.6577 52.444 23.3939L57.58 23.3848ZM71.417 27.8723L71.4232 31.3523L69.3352 31.356C67.8472 31.3587 66.6866 31.0007 65.8533 30.2822C65.02 29.5477 64.6019 28.3564 64.599 26.7084L64.5895 21.3804L62.9575 21.3833L62.9515 17.9753L64.5835 17.9724L64.5777 14.7084L68.6817 14.7012L68.6875 17.9651L71.3755 17.9604L71.3815 21.3684L68.6935 21.3731L68.703 26.7491C68.7038 27.1491 68.8003 27.437 68.9926 27.6126C69.1849 27.7883 69.505 27.8757 69.953 27.8749L71.417 27.8723ZM79.8055 31.5055C78.5735 31.5077 77.4691 31.3096 76.4924 30.9114C75.5157 30.5131 74.7307 29.9225 74.1373 29.1395C73.5599 28.3565 73.2542 27.4131 73.2203 26.3091L77.5883 26.3014C77.6534 26.9253 77.8702 27.4049 78.2388 27.7403C78.6074 28.0596 79.0877 28.2188 79.6797 28.2177C80.2877 28.2166 80.7674 28.0798 81.1189 27.8072C81.4704 27.5185 81.6457 27.1262 81.6449 26.6302C81.6441 26.2142 81.4995 25.8705 81.211 25.599C80.9385 25.3275 80.5941 25.1041 80.1778 24.9288C79.7775 24.7535 79.2012 24.5545 78.4488 24.3319C77.3602 23.9978 76.4716 23.6634 75.783 23.3286C75.0944 22.9938 74.5015 22.4989 74.0044 21.8437C73.5072 21.1886 73.2577 20.3331 73.2558 19.2771C73.253 17.7091 73.8189 16.4841 74.9533 15.6021C76.0877 14.704 77.5669 14.2534 79.3909 14.2502C81.2469 14.2469 82.7437 14.6923 83.8813 15.5862C85.0189 16.4642 85.629 17.6952 85.7118 19.279L81.2719 19.2869C81.2389 18.7429 81.0381 18.3193 80.6696 18.0159C80.301 17.6966 79.8288 17.5374 79.2528 17.5384C78.7568 17.5393 78.357 17.676 78.0535 17.9486C77.7499 18.2051 77.5986 18.5814 77.5995 19.0774C77.6004 19.6214 77.8572 20.0449 78.3697 20.348C78.8823 20.6511 79.6828 20.9777 80.7715 21.3278C81.8601 21.6938 82.7407 22.0443 83.4133 22.3791C84.1019 22.7139 84.6948 23.2008 85.1919 23.8399C85.6891 24.4791 85.9385 25.3026 85.9403 26.3106C85.942 27.2706 85.6955 28.1431 85.2009 28.9279C84.7223 29.7128 84.0194 30.338 83.0922 30.8037C82.1651 31.2693 81.0695 31.5033 79.8055 31.5055ZM96.6828 17.7716C98.2188 17.7689 99.4517 18.2787 100.382 19.301C101.311 20.3074 101.778 21.6986 101.781 23.4746L101.795 31.2986L97.7148 31.3058L97.7019 24.0338C97.7003 23.1378 97.4671 22.4422 97.0022 21.947C96.5373 21.4519 95.9129 21.205 95.1289 21.2063C94.3449 21.2077 93.7213 21.4568 93.2582 21.9537C92.7951 22.4505 92.5643 23.1469 92.5659 24.0429L92.5788 31.3149L88.4748 31.3221L88.4434 13.5622L92.5473 13.5549L92.5583 19.7229C92.9732 19.1302 93.5404 18.6572 94.2598 18.3039C94.9791 17.9506 95.7868 17.7732 96.6828 17.7716ZM110.743 31.4747C109.431 31.477 108.246 31.1991 107.189 30.641C106.149 30.0829 105.323 29.2843 104.713 28.2454C104.119 27.2064 103.821 25.991 103.819 24.599C103.816 23.223 104.118 22.0144 104.724 20.9734C105.331 19.9163 106.161 19.1068 107.216 18.5449C108.271 17.9831 109.455 17.701 110.767 17.6987C112.079 17.6963 113.263 17.9742 114.32 18.5324C115.377 19.0905 116.21 19.897 116.82 20.952C117.43 21.9909 117.736 23.1983 117.739 24.5743C117.741 25.9503 117.431 27.1669 116.809 28.224C116.203 29.2651 115.364 30.0665 114.293 30.6284C113.238 31.1903 112.055 31.4724 110.743 31.4747ZM110.737 27.9227C111.521 27.9213 112.184 27.6322 112.727 27.0552C113.286 26.4782 113.565 25.6537 113.563 24.5817C113.561 23.5097 113.287 22.6862 112.742 22.1112C112.213 21.5361 111.557 21.2493 110.773 21.2507C109.973 21.2521 109.309 21.5412 108.782 22.1182C108.255 22.6791 107.993 23.5036 107.995 24.5916C107.997 25.6636 108.254 26.4871 108.767 27.0622C109.296 27.6373 109.953 27.9241 110.737 27.9227ZM124.012 19.7632C124.41 19.1385 124.962 18.6335 125.665 18.2483C126.368 17.863 127.192 17.6696 128.136 17.6679C129.24 17.666 130.24 17.9442 131.137 18.5026C132.034 19.061 132.74 19.8598 133.254 20.8989C133.783 21.9379 134.05 23.1455 134.052 24.5215C134.054 25.8975 133.793 27.1139 133.266 28.1709C132.756 29.2118 132.054 30.021 131.159 30.5986C130.264 31.1602 129.264 31.4419 128.16 31.4439C127.232 31.4455 126.408 31.255 125.687 30.8723C124.983 30.4895 124.43 29.9945 124.029 29.3872L124.043 37.6432L119.939 37.6505L119.904 17.8745L124.008 17.8672L124.012 19.7632ZM129.876 24.5288C129.874 23.5048 129.585 22.7054 129.008 22.1304C128.447 21.5394 127.75 21.2446 126.918 21.2461C126.102 21.2475 125.407 21.5448 124.832 22.1378C124.273 22.7308 123.994 23.5393 123.996 24.5633C123.998 25.5873 124.279 26.3948 124.84 26.9858C125.417 27.5767 126.114 27.8715 126.93 27.8701C127.746 27.8686 128.441 27.5714 129.016 26.9784C129.591 26.3694 129.878 25.5528 129.876 24.5288Z" fill="#42766C"/>
</svg>
