<svg width="162" height="50" viewBox="0 0 162 50" fill="none" xmlns="http://www.w3.org/2000/svg">
<path fill-rule="evenodd" clip-rule="evenodd" d="M31.0265 35.3477C30.9193 33.8221 26.0679 28.4057 24.418 28.4047C22.7702 28.4057 18.2333 33.776 17.9799 35.9027C17.3718 41.0206 31.3691 40.2182 31.0265 35.3477Z" fill="#F87661" stroke="#F87661" stroke-width="1.5" stroke-linecap="round" stroke-linejoin="round"/>
<path fill-rule="evenodd" clip-rule="evenodd" d="M16.1003 29.3551C13.9285 29.3551 10.6168 20.2854 16.3227 14.5796C20.584 10.3182 27.492 10.3182 31.7524 14.5786C37.0616 19.8878 35.2194 28.5217 32.2162 28.5217C30.4872 28.5217 27.3928 23.48 24.2905 23.479C21.1881 23.478 18.272 29.3551 16.1003 29.3551Z" fill="#42766C" stroke="#42766C" stroke-width="1.5" stroke-linecap="round" stroke-linejoin="round"/>
<path d="M72.4113 21.576C72.4113 22.552 72.1873 23.448 71.7393 24.264C71.2913 25.064 70.6033 25.712 69.6753 26.208C68.7473 26.704 67.5953 26.952 66.2193 26.952H63.6753V33H59.5713V16.152H66.2193C67.5633 16.152 68.6993 16.384 69.6273 16.848C70.5553 17.312 71.2513 17.952 71.7153 18.768C72.1793 19.584 72.4113 20.52 72.4113 21.576ZM65.9073 23.688C66.6913 23.688 67.2753 23.504 67.6593 23.136C68.0433 22.768 68.2353 22.248 68.2353 21.576C68.2353 20.904 68.0433 20.384 67.6593 20.016C67.2753 19.648 66.6913 19.464 65.9073 19.464H63.6753V23.688H65.9073ZM87.1718 26.088C87.1718 26.472 87.1478 26.872 87.0998 27.288H77.8118C77.8758 28.12 78.1398 28.76 78.6038 29.208C79.0838 29.64 79.6678 29.856 80.3558 29.856C81.3798 29.856 82.0918 29.424 82.4918 28.56H86.8598C86.6358 29.44 86.2278 30.232 85.6358 30.936C85.0598 31.64 84.3318 32.192 83.4518 32.592C82.5718 32.992 81.5878 33.192 80.4998 33.192C79.1878 33.192 78.0198 32.912 76.9958 32.352C75.9718 31.792 75.1718 30.992 74.5958 29.952C74.0198 28.912 73.7318 27.696 73.7318 26.304C73.7318 24.912 74.0118 23.696 74.5718 22.656C75.1478 21.616 75.9478 20.816 76.9718 20.256C77.9958 19.696 79.1718 19.416 80.4998 19.416C81.7958 19.416 82.9478 19.688 83.9558 20.232C84.9638 20.776 85.7478 21.552 86.3078 22.56C86.8838 23.568 87.1718 24.744 87.1718 26.088ZM82.9718 25.008C82.9718 24.304 82.7318 23.744 82.2518 23.328C81.7718 22.912 81.1718 22.704 80.4518 22.704C79.7638 22.704 79.1798 22.904 78.6998 23.304C78.2358 23.704 77.9478 24.272 77.8358 25.008H82.9718ZM96.8009 29.52V33H94.7129C93.2249 33 92.0649 32.64 91.2329 31.92C90.4009 31.184 89.9849 29.992 89.9849 28.344V23.016H88.3529V19.608H89.9849V16.344H94.0889V19.608H96.7769V23.016H94.0889V28.392C94.0889 28.792 94.1849 29.08 94.3769 29.256C94.5689 29.432 94.8889 29.52 95.3369 29.52H96.8009ZM105.183 33.168C103.951 33.168 102.847 32.968 101.871 32.568C100.895 32.168 100.111 31.576 99.5189 30.792C98.9429 30.008 98.6389 29.064 98.6069 27.96H102.975C103.039 28.584 103.255 29.064 103.623 29.4C103.991 29.72 104.471 29.88 105.063 29.88C105.671 29.88 106.151 29.744 106.503 29.472C106.855 29.184 107.031 28.792 107.031 28.296C107.031 27.88 106.887 27.536 106.599 27.264C106.327 26.992 105.983 26.768 105.567 26.592C105.167 26.416 104.591 26.216 103.839 25.992C102.751 25.656 101.863 25.32 101.175 24.984C100.487 24.648 99.8949 24.152 99.3989 23.496C98.9029 22.84 98.6549 21.984 98.6549 20.928C98.6549 19.36 99.2229 18.136 100.359 17.256C101.495 16.36 102.975 15.912 104.799 15.912C106.655 15.912 108.151 16.36 109.287 17.256C110.423 18.136 111.031 19.368 111.111 20.952H106.671C106.639 20.408 106.439 19.984 106.071 19.68C105.703 19.36 105.231 19.2 104.655 19.2C104.159 19.2 103.759 19.336 103.455 19.608C103.151 19.864 102.999 20.24 102.999 20.736C102.999 21.28 103.255 21.704 103.767 22.008C104.279 22.312 105.079 22.64 106.167 22.992C107.255 23.36 108.135 23.712 108.807 24.048C109.495 24.384 110.087 24.872 110.583 25.512C111.079 26.152 111.327 26.976 111.327 27.984C111.327 28.944 111.079 29.816 110.583 30.6C110.103 31.384 109.399 32.008 108.471 32.472C107.543 32.936 106.447 33.168 105.183 33.168ZM122.085 19.464C123.621 19.464 124.853 19.976 125.781 21C126.709 22.008 127.173 23.4 127.173 25.176V33H123.093V25.728C123.093 24.832 122.861 24.136 122.397 23.64C121.933 23.144 121.309 22.896 120.525 22.896C119.741 22.896 119.117 23.144 118.653 23.64C118.189 24.136 117.957 24.832 117.957 25.728V33H113.853V15.24H117.957V21.408C118.373 20.816 118.941 20.344 119.661 19.992C120.381 19.64 121.189 19.464 122.085 19.464ZM136.12 33.192C134.808 33.192 133.624 32.912 132.568 32.352C131.528 31.792 130.704 30.992 130.096 29.952C129.504 28.912 129.208 27.696 129.208 26.304C129.208 24.928 129.512 23.72 130.12 22.68C130.728 21.624 131.56 20.816 132.616 20.256C133.672 19.696 134.856 19.416 136.168 19.416C137.48 19.416 138.664 19.696 139.72 20.256C140.776 20.816 141.608 21.624 142.216 22.68C142.824 23.72 143.128 24.928 143.128 26.304C143.128 27.68 142.816 28.896 142.192 29.952C141.584 30.992 140.744 31.792 139.672 32.352C138.616 32.912 137.432 33.192 136.12 33.192ZM136.12 29.64C136.904 29.64 137.568 29.352 138.112 28.776C138.672 28.2 138.952 27.376 138.952 26.304C138.952 25.232 138.68 24.408 138.136 23.832C137.608 23.256 136.952 22.968 136.168 22.968C135.368 22.968 134.704 23.256 134.176 23.832C133.648 24.392 133.384 25.216 133.384 26.304C133.384 27.376 133.64 28.2 134.152 28.776C134.68 29.352 135.336 29.64 136.12 29.64ZM149.41 21.504C149.81 20.88 150.362 20.376 151.066 19.992C151.77 19.608 152.594 19.416 153.538 19.416C154.642 19.416 155.642 19.696 156.538 20.256C157.434 20.816 158.138 21.616 158.65 22.656C159.178 23.696 159.442 24.904 159.442 26.28C159.442 27.656 159.178 28.872 158.65 29.928C158.138 30.968 157.434 31.776 156.538 32.352C155.642 32.912 154.642 33.192 153.538 33.192C152.61 33.192 151.786 33 151.066 32.616C150.362 32.232 149.81 31.736 149.41 31.128V39.384H145.306V19.608H149.41V21.504ZM155.266 26.28C155.266 25.256 154.978 24.456 154.402 23.88C153.842 23.288 153.146 22.992 152.314 22.992C151.498 22.992 150.802 23.288 150.226 23.88C149.666 24.472 149.386 25.28 149.386 26.304C149.386 27.328 149.666 28.136 150.226 28.728C150.802 29.32 151.498 29.616 152.314 29.616C153.13 29.616 153.826 29.32 154.402 28.728C154.978 28.12 155.266 27.304 155.266 26.28Z" fill="#42766C"/>
</svg>
